<svg width="16" height="16" viewBox="0 0 16 16" fill="none" xmlns="http://www.w3.org/2000/svg">
<path fill-rule="evenodd" clip-rule="evenodd" d="M7.99959 0C3.58174 0 0 3.67265 0 8.203C0 11.8271 2.29169 14.9016 5.47097 15.9856C5.87139 16.0615 6.01703 15.8089 6.01703 15.5908C6.01703 15.3965 6.01005 14.881 6.00656 14.1957C3.78113 14.6919 3.31159 13.0959 3.31159 13.0959C2.94769 12.1484 2.42318 11.8965 2.42318 11.8965C1.69682 11.3879 2.47836 11.3978 2.47836 11.3978C3.28123 11.4561 3.70379 12.2429 3.70379 12.2429C4.41723 13.4964 5.57641 13.1336 6.032 12.925C6.10441 12.3939 6.31159 12.0332 6.5399 11.8277C4.76369 11.6207 2.8962 10.917 2.8962 7.77394C2.8962 6.87818 3.20779 6.14584 3.71938 5.57229C3.63754 5.36575 3.36246 4.53182 3.79795 3.40197C3.79795 3.40197 4.46954 3.18155 5.99815 4.24347C6.6359 4.0607 7.32041 3.96942 8.00082 3.96668C8.68021 3.96963 9.36492 4.0607 10.0035 4.24347C11.5311 3.18155 12.2016 3.40197 12.2016 3.40197C12.6382 4.53182 12.3633 5.36575 12.2812 5.57229C12.7941 6.14584 13.1034 6.87818 13.1034 7.77394C13.1034 10.9244 11.2332 11.6184 9.45108 11.8208C9.73785 12.0742 9.99385 12.5758 9.99385 13.3412C9.99385 14.4372 9.98421 15.3216 9.98421 15.5906C9.98421 15.8104 10.128 16.0659 10.5342 15.9845C13.7099 14.8982 16 11.826 16 8.203C16 3.67265 12.4183 0 7.99959 0Z" fill="white"/>
</svg>
